# xmcd CD database file
#
# Track frame offsets:
#	150
#	13538
#	27716
#	42439
#	57825
#	70189
#	85135
#	97101
#	111361
#	127008
#	147153
#	160265
#	174813
#	189042
#	201034
#	215550
#	230441
#	244533
#	253172
#	261684
#	281202
#	297430
#	313361
#	323831
#
# Disc length: 4646 seconds
#
# Revision: 0
# Processed by: cddbd v1.5PL3 Copyright (c) Steve Scherf et al.
# Submitted via: CDex 1.51
#
DISCID=72122418
DTITLE=Ella Fitzgerald - The Legendary, Vol. 5 [Compilation]
DYEAR=1900
DGENRE=Jazz
TTITLE0=Once Too Often
TTITLE1=Into Each Life Some Rain Must Fall
TTITLE2=And Her Tears FLowed Like Wine
TTITLE3=I'm Confessin'
TTITLE4=I'm Beginning to See the Light
TTITLE5=That's the Way It Is
TTITLE6=It's Only a Paper Moon
TTITLE7=A Kiss Goodnight
TTITLE8=Benny's Coming Home on Saturday
TTITLE9=Always Be in Love With You
TTITLE10=You Won't Be Satisfied
TTITLE11=The Frim Fram Sauce
TTITLE12=(I Love You) For Sentimental Reasons
TTITLE13=It's a Pity to Say Goodnight
TTITLE14=Guilty
TTITLE15=Sentimental Journey
TTITLE16=Budella (Blue Skies) [Ella and Buddy Rich]
TTITLE17=It's Too Soon to Know
TTITLE18=Old Mother Hubbard
TTITLE19=You'll Have to Swing It (Mr. Paganini)
TTITLE20=There's a Small Hotel
TTITLE21=How High the Moon
TTITLE22=In A Mellow Tone
TTITLE23=Flying Home
EXTD=
EXTT0=
EXTT1=
EXTT2=
EXTT3=
EXTT4=
EXTT5=
EXTT6=
EXTT7=
EXTT8=
EXTT9=
EXTT10=
EXTT11=
EXTT12=
EXTT13=
EXTT14=
EXTT15=
EXTT16=
EXTT17=
EXTT18=
EXTT19=
EXTT20=
EXTT21=
EXTT22=
EXTT23=
PLAYORDER=
